<svg xmlns="http://www.w3.org/2000/svg" viewBox="0 0 31 31"><path d="M1 1h7v7h-7zM9 1h1v2h-1zM12 1h1v1h-1zM14 1h3v1h-2v1h-1zM19 1h3v1h-2v1h-1zM23 1h7v7h-7zM2 2v5h5v-5zM17 2h1v2h-1zM24 2v5h5v-5zM3 3h3v3h-3zM10 3h4v2h-1v-1h-3zM25 3h3v3h-3zM9 4h1v1h-1zM15 4h2v1h-1v1h-1zM18 4h1v1h-1zM21 4h1v2h-1v1h-1v-2h1zM10 5h2v3h-1v-1h-1zM17 5h1v1h1v1h-1v1h1v1h-2v2h-2v1h-1v-3h1v1h1v-2h1v-1h-1v-1h1zM14 6h1v1h-1zM9 7h1v1h1v1h1v-1h1v-1h1v2h-1v2h-2v-1h-1v-1h-1zM15 7h1v1h-1zM19 7h1v1h-1zM21 7h1v2h-2v-1h1zM1 9h1v1h-1zM3 9h2v1h1v-1h3v4h-1v-1h-1v-1h1v-1h-1v1h-1v2h-1v1h-1v-2h-1v-1h1v-1h-1zM19 9h1v1h-1zM23 9h1v1h2v1h-1v1h2v1h1v1h-2v-1h-4v-1h1v-1h-1v1h-1v-2h2zM26 9h1v1h-1zM28 9h2v2h-1v-1h-1zM10 11h1v1h-1zM17 11h1v2h-1zM19 11h1v1h1v2h-1v-1h-1zM27 11h2v1h-2zM1 12h1v3h-1zM11 12h1v1h-1zM13 12h1v1h-1zM29 12h1v1h-1zM6 13h2v1h-2zM10 13h1v1h-1zM12 13h1v1h-1zM15 13h2v1h-1v1h-1zM5 14h1v1h2v1h-1v1h-1v-1h-1zM9 14h1v1h-1zM11 14h1v2h1v5h1v-2h1v-3h1v1h1v-1h-1v-1h1v-1h3v1h2v-1h2v1h4v-1h2v2h-1v3h-1v3h2v1h-1v1h-1v-1h-1v1h-1v2h1v1h-2v2h-1v1h-1v-2h1v-2h-3v-2h-1v-1h1v-1h-2v2h-1v-1h-1v2h-4v-1h-1v-1h1v-1h-1v-1h-1v-2h-1v-4h1zM13 14h1v1h-1zM14 15h1v1h-1zM18 15v4h1v-1h1v3h1v-2h3v1h-2v1h3v-1h1v1h1v-1h-1v-1h1v-1h1v-2h-3v1h1v1h-1v1h-1v-3h-1v2h-3v-1h-1v-2zM2 16h2v1h2v1h-1v1h-3v-1h-1v-1h1zM8 16h1v3h-1v-1h-1v-1h1zM16 18v1h1v-1zM1 19h1v1h-1zM5 19h3v1h-2v2h-4v-1h1v-1h2zM9 19h1v1h-1zM16 20v2h-2v2h1v-1h1v-1h1v-1h1v-1zM7 21h2v1h-2zM9 22h3v1h-1v2h2v4h1v-1h1v-1h1v1h1v1h-2v1h-4v-1h-1v-1h-1v-2h1v-1h-1zM22 22v3h3v-3zM1 23h7v7h-7zM23 23h1v1h-1zM2 24v5h5v-5zM29 24h1v2h-1zM3 25h3v3h-3zM17 25h1v1h-1zM19 25h1v1h-1zM27 25h1v1h-1zM14 26h1v1h-1zM20 26h1v1h-1zM28 26h1v1h-1zM11 27v1h1v-1zM18 27h2v2h1v-1h1v2h-4zM29 27h1v1h-1zM26 28h1v1h-1zM28 28h1v2h-1zM9 29h1v1h-1zM25 29h1v1h-1z"/></svg>